<?xml version="1.0" standalone="no"?>
<svg xmlns="http://www.w3.org/2000/svg" viewBox="0 0 127.97 36" width="127.97" height="36"><g fill="#02DC82" color="#02DC82" transform="translate(0 6) scale(0.4705883)"><svg width="44.0" height="51.0" x="0.0" y="0.0" viewBox="0 0 44 51"><path fill="currentColor" fill-rule="evenodd" d="M39.856 15.158l-1.692 1.148c-1.016 1.99-9.537 18.676-10.789 21.052l2.592 11.014 11.498-16.959 1.01-6.43-2.62-9.825zm-1.627-.72l1.045-.708-1.253-1.916.208 2.624zM23.004 1.64L11.134 9.42l2.405 27.08h12.583c1.207-2.306 7.302-14.229 10.688-20.862l-.496-6.257-13.31-7.739zm-16.1 40.49l4.76-4.76-9.269-6.18 4.509 10.94zm2.931-30.274L1.717 28.926l10.24 6.826-2.122-23.895zm16.143 26.151H13.16l-5.091 5.09 20.525 6.031-2.617-11.121zM43.99 25.059l-1.061 6.755a.752.752 0 0 1-.12.307L30.25 50.642a.755.755 0 0 1-.836.301l-22.99-6.755a.754.754 0 0 1-.484-.437L.057 29.48a.755.755 0 0 1 .016-.612L9.661 8.711a.76.76 0 0 1 .268-.307L22.567.124a.754.754 0 0 1 .792-.022l14.055 8.172c.102.059.189.14.252.24l3.277 5.011a.75.75 0 0 1 .097.218l2.935 11.004a.76.76 0 0 1 .016.312z"></path></svg></g><path fill="#FFF" fill-rule="nonzero" d="M6.89 5.47L6.89 5.47L6.91 3.96Q6.91 2.52 6.82 1.63L6.82 1.63L5.86 1.56Q5.78 1.27 5.78 0.82Q5.78 0.36 5.81 0.22L5.81 0.22Q7.94 0.12 8.93 0L8.93 0L9.02 0.12Q8.66 3.26 8.66 8.22Q8.66 13.18 8.88 14.76L8.88 14.76L9.77 14.81Q9.82 15.34 9.82 15.59Q9.82 15.84 9.74 16.20L9.74 16.20Q8.81 16.25 7.13 16.44L7.13 16.44Q6.94 16.06 6.84 15.22L6.84 15.22Q5.18 16.73 3.49 16.73Q1.80 16.73 0.90 15.19Q0 13.66 0 10.84Q0 8.02 1.14 6.46Q2.28 4.90 4.42 4.90L4.42 4.90Q5.62 4.90 6.89 5.47ZM4.44 6.31L4.44 6.31Q2.04 6.31 2.04 11.09L2.04 11.09Q2.04 12.89 2.58 13.88Q3.12 14.88 4.08 14.88L4.08 14.88Q4.73 14.88 5.51 14.47Q6.29 14.06 6.86 13.44L6.86 13.44Q6.91 10.46 6.91 7.01L6.91 7.01Q5.38 6.31 4.44 6.31ZM20.09 8.09L20.09 8.09L19.99 11.54Q19.99 13.18 20.18 14.74L20.18 14.74L21.07 14.81Q21.12 15.19 21.12 15.52Q21.12 15.84 21.05 16.20L21.05 16.20Q20.35 16.22 18.34 16.44L18.34 16.44Q18.17 15.98 18.07 15.31L18.07 15.31Q16.20 16.73 14.84 16.73Q13.49 16.73 12.73 15.85Q11.98 14.98 11.98 13.36Q11.98 11.74 13.00 10.80Q14.02 9.86 15.56 9.86Q17.11 9.86 18.22 10.44L18.22 10.44Q18.24 10.18 18.24 9.58L18.24 9.58Q18.24 7.80 17.75 7.02Q17.26 6.24 16.25 6.24Q15.24 6.24 14.78 6.62L14.78 6.62Q14.98 7.01 14.98 7.58Q14.98 8.16 14.60 8.58Q14.23 9.00 13.56 9.00L13.56 9.00Q12.43 9.00 12.43 7.67Q12.43 6.34 13.44 5.62Q14.45 4.90 16.27 4.90Q18.10 4.90 19.09 5.75Q20.09 6.60 20.09 8.09ZM18.12 11.95L18.12 11.95Q17.14 11.11 16.01 11.11L16.01 11.11Q13.85 11.11 13.85 13.03L13.85 13.03Q13.85 15.00 15.55 15.00L15.55 15.00Q16.18 15.00 16.88 14.68Q17.59 14.35 18 13.87L18 13.87Q18.12 12.43 18.12 11.95ZM23.47 15.05L24.31 14.98Q24.53 12.62 24.53 10.67Q24.53 8.71 24.34 6.60L24.34 6.60L23.45 6.53Q23.38 6.12 23.38 5.75Q23.38 5.38 23.40 5.18L23.40 5.18Q24.79 5.14 26.38 4.97L26.38 4.97L26.50 5.09Q26.28 6.50 26.28 9.84Q26.28 13.18 26.50 14.98L26.50 14.98L27.38 15.05Q27.43 15.43 27.43 15.71Q27.43 15.98 27.36 16.39L27.36 16.39Q26.52 16.37 25.42 16.37Q24.31 16.37 23.50 16.39L23.50 16.39Q23.42 16.03 23.42 15.65Q23.42 15.26 23.47 15.05L23.47 15.05ZM26.74 1.66L26.74 1.66Q26.74 3.14 25.20 3.14L25.20 3.14Q24 3.14 24 1.92L24 1.92Q24 0.41 25.54 0.41L25.54 0.41Q26.74 0.41 26.74 1.66ZM30.67 10.80L30.67 10.80L30.67 7.51Q30.67 3.19 30.55 1.63L30.55 1.63L29.59 1.56Q29.52 1.25 29.52 0.83Q29.52 0.41 29.54 0.22L29.54 0.22Q31.73 0.10 32.66 0L32.66 0L32.76 0.12Q32.42 2.98 32.42 6.26L32.42 6.26L32.42 10.22Q32.42 13.18 32.64 14.98L32.64 14.98L33.53 15.05Q33.58 15.43 33.58 15.71Q33.58 15.98 33.50 16.39L33.50 16.39Q32.66 16.37 31.56 16.37Q30.46 16.37 29.64 16.39L29.64 16.39Q29.57 16.03 29.57 15.76Q29.57 15.48 29.62 15.05L29.62 15.05L30.46 14.98Q30.67 12.72 30.67 10.80ZM41.83 6.58L40.82 6.50Q40.78 6.26 40.78 5.87Q40.78 5.47 40.85 5.16L40.85 5.16Q41.57 5.18 42.85 5.18Q44.14 5.18 44.83 5.16L44.83 5.16Q44.90 5.47 44.90 5.83Q44.90 6.19 44.86 6.50L44.86 6.50L44.14 6.58Q43.49 8.33 42.47 11.40Q41.45 14.47 40.93 15.91Q40.42 17.35 39.97 18.24Q39.53 19.13 39 19.92L39 19.92Q37.99 21.41 36.61 21.41Q35.23 21.41 34.08 20.64L34.08 20.64Q34.18 19.25 34.87 18.65L34.87 18.65Q35.59 19.63 36.62 19.63L36.62 19.63Q37.73 19.63 39.07 16.51L39.07 16.51Q37.85 12.22 35.21 6.58L35.21 6.58L34.42 6.50Q34.37 6.22 34.37 5.84Q34.37 5.47 34.44 5.16L34.44 5.16Q35.14 5.18 36.52 5.18Q37.90 5.18 38.62 5.16L38.62 5.16Q38.69 5.47 38.69 5.84Q38.69 6.22 38.64 6.50L38.64 6.50L37.66 6.58Q38.11 9.24 40.01 13.70L40.01 13.70L40.10 13.70Q41.30 9.82 41.83 6.58L41.83 6.58ZM50.30 15.05L50.30 15.05Q50.30 15.77 49.87 16.25Q49.44 16.73 48.55 16.73L48.55 16.73Q47.18 16.73 47.18 15.34L47.18 15.34Q47.18 13.61 48.94 13.61L48.94 13.61Q50.30 13.61 50.30 15.05ZM62.14 7.97L62.14 7.97L62.11 10.30Q62.11 12.82 62.40 14.98L62.40 14.98L63.24 15.05Q63.29 15.58 63.29 15.78Q63.29 15.98 63.22 16.39L63.22 16.39Q62.54 16.37 61.20 16.37Q59.86 16.37 59.28 16.39L59.28 16.39Q59.21 16.03 59.21 15.71Q59.21 15.38 59.26 15.05L59.26 15.05L60.10 14.98Q60.29 12.17 60.29 10.16Q60.29 8.16 59.89 7.30Q59.50 6.43 58.54 6.43L58.54 6.43Q57.24 6.43 55.68 7.99L55.68 7.99Q55.66 8.62 55.66 10.91Q55.66 13.20 55.87 14.98L55.87 14.98L56.76 15.05Q56.81 15.58 56.81 15.78Q56.81 15.98 56.74 16.39L56.74 16.39Q56.06 16.37 54.77 16.37Q53.47 16.37 52.87 16.39L52.87 16.39Q52.80 16.03 52.80 15.71Q52.80 15.38 52.85 15.05L52.85 15.05L53.69 14.98Q53.90 12.58 53.90 10.57Q53.90 8.57 53.71 6.60L53.71 6.60L52.82 6.53Q52.75 6.12 52.75 5.72Q52.75 5.33 52.78 5.18L52.78 5.18Q54.00 5.16 55.75 4.97L55.75 4.97L55.87 5.09Q55.82 5.38 55.73 6.53L55.73 6.53Q56.47 5.78 57.46 5.34Q58.44 4.90 59.30 4.90L59.30 4.90Q62.14 4.90 62.14 7.97ZM69.53 11.04L69.53 11.04Q68.35 11.04 67.34 10.92L67.34 10.92Q67.39 15.00 70.06 15.00L70.06 15.00Q71.40 15.00 73.03 13.51L73.03 13.51Q73.73 14.23 73.92 15.41L73.92 15.41Q71.95 16.73 69.74 16.73Q67.54 16.73 66.46 15.20Q65.38 13.68 65.38 10.73Q65.38 7.78 66.59 6.34Q67.80 4.90 70.03 4.90L70.03 4.90Q71.69 4.90 72.77 5.90Q73.85 6.91 73.86 8.38Q73.87 9.84 73.61 10.46L73.61 10.46Q71.81 11.04 69.53 11.04ZM69.86 6.24L69.86 6.24Q67.63 6.24 67.37 9.53L67.37 9.53Q68.45 9.65 69.74 9.65Q71.04 9.65 71.76 9.41L71.76 9.41Q71.86 8.81 71.86 8.52L71.86 8.52Q71.86 7.46 71.32 6.85Q70.78 6.24 69.86 6.24ZM81.86 6.53L81.86 6.53Q82.58 6.36 83.10 6.36Q83.62 6.36 84.05 6.43L84.05 6.43Q84.53 10.37 85.42 13.70L85.42 13.70L85.51 13.70Q86.06 12.50 86.60 10.44Q87.14 8.38 87.38 6.58L87.38 6.58L86.40 6.50Q86.35 6.26 86.35 5.87Q86.35 5.47 86.42 5.16L86.42 5.16Q87.14 5.18 88.43 5.18Q89.71 5.18 90.41 5.16L90.41 5.16Q90.48 5.47 90.48 5.83Q90.48 6.19 90.43 6.50L90.43 6.50L89.62 6.58Q86.83 13.73 86.16 16.37L86.16 16.37Q85.54 16.54 85.04 16.54Q84.55 16.54 84.38 16.51L84.38 16.51Q84.12 14.64 82.80 9.62L82.80 9.62L82.70 9.62Q81.34 13.75 80.74 16.37L80.74 16.37Q80.11 16.54 79.62 16.54Q79.13 16.54 78.96 16.51L78.96 16.51Q78.53 14.57 77.64 11.72Q76.75 8.88 75.84 6.58L75.84 6.58L75.05 6.50Q75 6.22 75 5.84Q75 5.47 75.07 5.16L75.07 5.16Q75.77 5.18 77.16 5.18Q78.55 5.18 79.27 5.16L79.27 5.16Q79.34 5.47 79.34 5.84Q79.34 6.22 79.30 6.50L79.30 6.50L78.34 6.58Q78.67 9.29 79.99 13.70L79.99 13.70L80.09 13.70Q80.62 12.50 81.17 10.28Q81.72 8.06 81.86 6.53ZM95.42 4.90Q97.10 4.90 98.10 5.69Q99.10 6.48 99.10 7.74Q99.10 9.00 97.97 9.00L97.97 9.00Q97.30 9.00 96.92 8.58Q96.55 8.16 96.55 7.58Q96.55 7.01 96.74 6.62L96.74 6.62Q96.17 6.17 95.38 6.17Q94.58 6.17 94.07 6.55Q93.55 6.94 93.55 7.68Q93.55 8.42 94.14 8.98Q94.73 9.53 95.57 9.88Q96.41 10.22 97.25 10.60Q98.09 10.97 98.68 11.65Q99.26 12.34 99.26 13.34L99.26 13.34Q99.26 14.90 98.22 15.82Q97.18 16.73 95.38 16.73Q93.58 16.73 92.44 15.96Q91.30 15.19 91.30 13.94L91.30 13.94L91.30 13.85Q91.30 12.55 92.42 12.55L92.42 12.55Q93.10 12.55 93.47 12.97Q93.84 13.39 93.84 13.94Q93.84 14.50 93.72 14.81L93.72 14.81Q94.20 15.12 95.24 15.12Q96.29 15.12 96.83 14.76Q97.37 14.40 97.37 13.76Q97.37 13.13 96.78 12.62Q96.19 12.12 95.35 11.77Q94.51 11.42 93.67 11.03Q92.83 10.63 92.24 9.89Q91.66 9.14 91.66 8.11L91.66 8.11Q91.66 6.62 92.70 5.76Q93.74 4.90 95.42 4.90Z" transform="translate(28.706, 9.816)"></path></svg>